<svg xmlns="http://www.w3.org/2000/svg" version="1.1" xmlns:xlink="http://www.w3.org/1999/xlink" xmlns:svgjs="http://svgjs.dev/svgjs" viewBox="0 0 9.836499664081128 3.1647931960055726"><g transform="matrix(1,0,0,1,3.4090213249754067,0.5739237869779773)"><rect width="9.836499664081128" height="9.836499664081128" x="-3.4090213249754067" y="-3.909777021015755" fill="#ffffff"></rect><g><path d=" M 0.471408 -3.3306690738754696e-16 L 0.782691 0.8019059999999997 Q 0.800625 0.8480219999999997 0.8230425 0.8653154999999997 Q 0.84546 0.8826089999999998 0.863394 0.8838899999999997 L 0.863394 0.9095099999999997 Q 0.824964 0.9069479999999998 0.7730835 0.9063074999999997 Q 0.721203 0.9056669999999997 0.668682 0.9056669999999997 Q 0.609756 0.9056669999999997 0.557235 0.9063074999999997 Q 0.504714 0.9069479999999998 0.47397 0.9095099999999997 L 0.47397 0.8838899999999997 Q 0.539301 0.8813279999999997 0.5565945 0.8614724999999998 Q 0.573888 0.8416169999999997 0.548268 0.7762859999999997 L 0.330498 0.1806209999999997 L 0.353556 0.14731499999999964 L 0.158844 0.6545909999999997 Q 0.122976 0.7493849999999997 0.1236165 0.7980629999999997 Q 0.124257 0.8467409999999997 0.155001 0.8640344999999997 Q 0.185745 0.8813279999999997 0.236985 0.8838899999999997 L 0.236985 0.9095099999999997 Q 0.194712 0.9069479999999998 0.156282 0.9063074999999997 Q 0.117852 0.9056669999999997 0.078141 0.9056669999999997 Q 0.049959 0.9056669999999997 0.0249795 0.9063074999999997 Q 0 0.9069479999999998 -0.019215 0.9095099999999997 L -0.019215 0.8838899999999997 Q 0.007686 0.8787659999999997 0.035868 0.8493029999999997 Q 0.06405 0.8198399999999997 0.090951 0.7493849999999997 L 0.383019 -3.3306690738754696e-16 Q 0.403515 0.0012809999999996435 0.4272135 0.0012809999999996435 Q 0.450912 0.0012809999999996435 0.471408 -3.3306690738754696e-16 M 0.561078 0.5405819999999997 L 0.561078 0.5662019999999997 L 0.17934 0.5662019999999997 L 0.19215000000000002 0.5405819999999997 L 0.561078 0.5405819999999997 M 0.9493903321874999 1.1503379999999996 L 0.9493903321874999 1.1247179999999997 Q 1.0006303321874999 1.1195939999999998 1.0364983321874999 1.0946144999999996 Q 1.0723663321874999 1.0696349999999997 1.0915813321874999 1.0094279999999998 Q 1.1107963321874998 0.9492209999999998 1.1107963321874998 0.8403359999999997 L 1.1107963321874998 0.1383479999999997 Q 1.1107963321874998 0.09095099999999967 1.1037508321875 0.06853349999999969 Q 1.0967053321875 0.04611599999999971 1.0762093321875 0.0377894999999997 Q 1.0557133321874999 0.029462999999999684 1.0147213321875 0.028181999999999707 L 1.0147213321875 0.002561999999999731 Q 1.0467463321875 0.0038429999999997078 1.0986268321875 0.005123999999999684 Q 1.1505073321875 0.006404999999999661 1.2081523321874998 0.006404999999999661 Q 1.2657973321874998 0.006404999999999661 1.3202398321875 0.005123999999999684 Q 1.3746823321875 0.0038429999999997078 1.4105503321875 0.002561999999999731 L 1.4105503321875 0.028181999999999707 Q 1.3708393321874999 0.029462999999999684 1.3497028321875 0.0377894999999997 Q 1.3285663321874999 0.04611599999999971 1.3215208321874998 0.06853349999999969 Q 1.3144753321875 0.09095099999999967 1.3144753321875 0.1383479999999997 L 1.3144753321875 0.6071939999999997 Q 1.3144753321875 0.6597149999999997 1.3144753321875 0.7205624999999998 Q 1.3144753321875 0.7814099999999997 1.3099918321875 0.8390549999999997 Q 1.3055083321874998 0.8966999999999997 1.2926983321874999 0.9415349999999997 Q 1.2670783321874999 1.0299239999999996 1.1818918321875 1.0901309999999997 Q 1.0967053321875 1.1503379999999996 0.9493903321874999 1.1503379999999996 M 2.008974185859375 0.002561999999999731 L 2.008974185859375 0.028181999999999707 Q 1.967982185859375 0.029462999999999684 1.946845685859375 0.0377894999999997 Q 1.925709185859375 0.04611599999999971 1.919304185859375 0.06853349999999969 Q 1.912899185859375 0.09095099999999967 1.912899185859375 0.1383479999999997 L 1.912899185859375 0.7737239999999997 Q 1.912899185859375 0.8198399999999997 1.919944685859375 0.8428979999999997 Q 1.926990185859375 0.8659559999999997 1.947486185859375 0.8736419999999997 Q 1.967982185859375 0.8813279999999997 2.008974185859375 0.8838899999999997 L 2.008974185859375 0.9095099999999997 Q 1.974387185859375 0.9069479999999998 1.921866185859375 0.9063074999999997 Q 1.869345185859375 0.9056669999999997 1.815543185859375 0.9056669999999997 Q 1.752774185859375 0.9056669999999997 1.699612685859375 0.9063074999999997 Q 1.6464511858593749 0.9069479999999998 1.613145185859375 0.9095099999999997 L 1.613145185859375 0.8838899999999997 Q 1.654137185859375 0.8813279999999997 1.674633185859375 0.8736419999999997 Q 1.6951291858593749 0.8659559999999997 1.702174685859375 0.8428979999999997 Q 1.709220185859375 0.8198399999999997 1.709220185859375 0.7737239999999997 L 1.709220185859375 0.1383479999999997 Q 1.709220185859375 0.09095099999999967 1.702174685859375 0.06853349999999969 Q 1.6951291858593749 0.04611599999999971 1.673992685859375 0.0377894999999997 Q 1.6528561858593749 0.029462999999999684 1.613145185859375 0.028181999999999707 L 1.613145185859375 0.002561999999999731 Q 1.6464511858593749 0.0038429999999997078 1.699612685859375 0.005123999999999684 Q 1.752774185859375 0.006404999999999661 1.815543185859375 0.006404999999999661 Q 1.869345185859375 0.006404999999999661 1.921866185859375 0.005123999999999684 Q 1.974387185859375 0.0038429999999997078 2.008974185859375 0.002561999999999731 M 3.0633865024218747 0.002561999999999731 L 3.0633865024218747 0.028181999999999707 Q 3.022394502421875 0.033305999999999725 3.001898502421875 0.04931849999999971 Q 2.981402502421875 0.0653309999999997 2.9743570024218746 0.09991799999999973 Q 2.967311502421875 0.13450499999999965 2.967311502421875 0.19727399999999973 L 2.967311502421875 0.9120719999999997 Q 2.951939502421875 0.9107909999999997 2.9359270024218747 0.9107909999999997 Q 2.919914502421875 0.9107909999999997 2.9019805024218748 0.9120719999999997 L 2.346026502421875 0.20752199999999965 L 2.346026502421875 0.6994259999999997 Q 2.346026502421875 0.7698809999999997 2.353712502421875 0.8076704999999997 Q 2.3613985024218747 0.8454599999999997 2.387659002421875 0.8614724999999998 Q 2.4139195024218747 0.8774849999999997 2.470283502421875 0.8838899999999997 L 2.470283502421875 0.9095099999999997 Q 2.4459445024218747 0.9069479999999998 2.406233502421875 0.9063074999999997 Q 2.366522502421875 0.9056669999999997 2.331935502421875 0.9056669999999997 Q 2.3024725024218746 0.9056669999999997 2.2717285024218747 0.9063074999999997 Q 2.240984502421875 0.9069479999999998 2.220488502421875 0.9095099999999997 L 2.220488502421875 0.8838899999999997 Q 2.261480502421875 0.8774849999999997 2.281976502421875 0.8621129999999997 Q 2.3024725024218746 0.8467409999999997 2.309518002421875 0.8115134999999997 Q 2.3165635024218747 0.7762859999999997 2.3165635024218747 0.7147979999999997 L 2.3165635024218747 0.1383479999999997 Q 2.3165635024218747 0.09095099999999967 2.309518002421875 0.06853349999999969 Q 2.3024725024218746 0.04611599999999971 2.2813360024218747 0.0377894999999997 Q 2.260199502421875 0.029462999999999684 2.220488502421875 0.028181999999999707 L 2.220488502421875 0.002561999999999731 Q 2.240984502421875 0.0038429999999997078 2.2717285024218747 0.005123999999999684 Q 2.3024725024218746 0.006404999999999661 2.331935502421875 0.006404999999999661 Q 2.3626795024218747 0.006404999999999661 2.390861502421875 0.005123999999999684 Q 2.419043502421875 0.0038429999999997078 2.442101502421875 0.002561999999999731 L 2.937848502421875 0.6135989999999998 L 2.937848502421875 0.21264599999999967 Q 2.937848502421875 0.14219099999999973 2.930162502421875 0.1044014999999997 Q 2.922476502421875 0.06661199999999967 2.896216002421875 0.04995899999999964 Q 2.869955502421875 0.033305999999999725 2.813591502421875 0.028181999999999707 L 2.813591502421875 0.002561999999999731 Q 2.837930502421875 0.0038429999999997078 2.877641502421875 0.005123999999999684 Q 2.917352502421875 0.006404999999999661 2.951939502421875 0.006404999999999661 Q 2.982683502421875 0.006404999999999661 3.0127870024218746 0.005123999999999684 Q 3.0428905024218746 0.0038429999999997078 3.0633865024218747 0.002561999999999731 M 4.107561452285156 0.002561999999999731 L 4.107561452285156 0.02690099999999973 Q 4.066569452285156 0.03586799999999968 4.019812952285156 0.06276899999999974 Q 3.973056452285156 0.0896699999999997 3.921816452285156 0.1498769999999997 L 3.680988452285156 0.4368209999999997 L 3.755286452285156 0.33049799999999974 L 4.060164452285156 0.8057489999999997 Q 4.078098452285156 0.8352119999999997 4.098594452285156 0.8531459999999997 Q 4.119090452285156 0.8710799999999997 4.152396452285156 0.8838899999999997 L 4.152396452285156 0.9095099999999997 Q 4.107561452285156 0.9069479999999998 4.052478452285156 0.9063074999999997 Q 3.997395452285156 0.9056669999999997 3.952560452285156 0.9056669999999997 Q 3.925659452285156 0.9056669999999997 3.887229452285156 0.9063074999999997 Q 3.848799452285156 0.9069479999999998 3.789873452285156 0.9095099999999997 L 3.789873452285156 0.8838899999999997 Q 3.842394452285156 0.8813279999999997 3.853282952285156 0.8691584999999997 Q 3.864171452285156 0.8569889999999997 3.843675452285156 0.8262449999999997 L 3.657930452285156 0.5252099999999997 Q 3.639996452285156 0.4957469999999997 3.625905452285156 0.4810154999999997 Q 3.611814452285156 0.4662839999999997 3.597723452285156 0.4605194999999997 Q 3.583632452285156 0.4547549999999997 3.560574452285156 0.4534739999999997 L 3.560574452285156 0.4265729999999997 Q 3.616938452285156 0.4252919999999997 3.661132952285156 0.39582899999999965 Q 3.705327452285156 0.36636599999999975 3.757848452285156 0.30615899999999974 L 3.833427452285156 0.21520799999999973 Q 3.882105452285156 0.15756299999999968 3.890431952285156 0.11593049999999971 Q 3.898758452285156 0.07429799999999964 3.8737789522851562 0.05123999999999973 Q 3.848799452285156 0.028181999999999707 3.797559452285156 0.02690099999999973 L 3.797559452285156 0.002561999999999731 Q 3.844956452285156 0.0038429999999997078 3.887869952285156 0.005123999999999684 Q 3.930783452285156 0.006404999999999661 3.987147452285156 0.006404999999999661 Q 4.061445452285156 0.006404999999999661 4.107561452285156 0.002561999999999731 M 3.664335452285156 0.002561999999999731 L 3.664335452285156 0.028181999999999707 Q 3.623343452285156 0.029462999999999684 3.602206952285156 0.0377894999999997 Q 3.581070452285156 0.04611599999999971 3.574665452285156 0.06853349999999969 Q 3.568260452285156 0.09095099999999967 3.568260452285156 0.1383479999999997 L 3.568260452285156 0.7737239999999997 Q 3.568260452285156 0.8198399999999997 3.575305952285156 0.8428979999999997 Q 3.582351452285156 0.8659559999999997 3.602847452285156 0.8736419999999997 Q 3.623343452285156 0.8813279999999997 3.664335452285156 0.8838899999999997 L 3.664335452285156 0.9095099999999997 Q 3.629748452285156 0.9069479999999998 3.577227452285156 0.9063074999999997 Q 3.524706452285156 0.9056669999999997 3.470904452285156 0.9056669999999997 Q 3.409416452285156 0.9056669999999997 3.354973952285156 0.9063074999999997 Q 3.300531452285156 0.9069479999999998 3.268506452285156 0.9095099999999997 L 3.268506452285156 0.8838899999999997 Q 3.309498452285156 0.8813279999999997 3.329994452285156 0.8736419999999997 Q 3.350490452285156 0.8659559999999997 3.357535952285156 0.8428979999999997 Q 3.3645814522851563 0.8198399999999997 3.3645814522851563 0.7737239999999997 L 3.3645814522851563 0.1383479999999997 Q 3.3645814522851563 0.09095099999999967 3.357535952285156 0.06853349999999969 Q 3.350490452285156 0.04611599999999971 3.329353952285156 0.0377894999999997 Q 3.308217452285156 0.029462999999999684 3.268506452285156 0.028181999999999707 L 3.268506452285156 0.002561999999999731 Q 3.300531452285156 0.0038429999999997078 3.354973952285156 0.005123999999999684 Q 3.409416452285156 0.006404999999999661 3.470904452285156 0.006404999999999661 Q 3.524706452285156 0.006404999999999661 3.577227452285156 0.005123999999999684 Q 3.629748452285156 0.0038429999999997078 3.664335452285156 0.002561999999999731 M 5.054386031542969 0.0012809999999996435 L 5.054386031542969 0.02690099999999973 Q 5.026204031542969 0.03842999999999974 4.996741031542969 0.07237649999999973 Q 4.9672780315429685 0.10632299999999972 4.931410031542969 0.17549699999999968 L 4.689301031542969 0.6545909999999997 L 4.6290940315429685 0.6545909999999997 L 4.329340031542968 0.09991799999999973 Q 4.306282031542969 0.05636399999999975 4.287707531542969 0.04227299999999967 Q 4.269133031542969 0.028181999999999707 4.255042031542969 0.028181999999999707 L 4.255042031542969 0.0012809999999996435 Q 4.289629031542969 0.005123999999999684 4.326137531542969 0.006404999999999661 Q 4.362646031542969 0.007685999999999749 4.406200031542969 0.007685999999999749 Q 4.462564031542969 0.007685999999999749 4.527895031542969 0.005764499999999728 Q 4.593226031542969 0.0038429999999997078 4.647028031542969 0.0012809999999996435 L 4.647028031542969 0.028181999999999707 Q 4.615003031542969 0.028181999999999707 4.589383031542969 0.033305999999999725 Q 4.563763031542969 0.03842999999999974 4.553515031542969 0.05188049999999966 Q 4.543267031542969 0.0653309999999997 4.558639031542969 0.09479399999999971 L 4.761037031542969 0.4842179999999997 L 4.721326031542969 0.5354579999999998 L 4.853269031542969 0.2702909999999997 Q 4.900666031542968 0.17805899999999975 4.903868531542969 0.1255379999999997 Q 4.907071031542969 0.07301699999999967 4.878248531542969 0.050599499999999686 Q 4.8494260315429685 0.028181999999999707 4.796905031542969 0.02690099999999973 L 4.796905031542969 0.0012809999999996435 Q 4.840459031542969 0.002561999999999731 4.878889031542969 0.0038429999999997078 Q 4.917319031542969 0.005123999999999684 4.957030031542969 0.005123999999999684 Q 4.985212031542969 0.005123999999999684 5.010191531542969 0.0038429999999997078 Q 5.035171031542969 0.002561999999999731 5.054386031542969 0.0012809999999996435 M 4.780252031542969 0.4521929999999997 L 4.780252031542969 0.7737239999999997 Q 4.780252031542969 0.8198399999999997 4.787297531542968 0.8428979999999997 Q 4.794343031542969 0.8659559999999997 4.814839031542969 0.8736419999999997 Q 4.835335031542969 0.8813279999999997 4.876327031542969 0.8838899999999997 L 4.876327031542969 0.9095099999999997 Q 4.841740031542969 0.9069479999999998 4.787297531542968 0.9063074999999997 Q 4.732855031542969 0.9056669999999997 4.679053031542969 0.9056669999999997 Q 4.618846031542969 0.9056669999999997 4.565044031542969 0.9063074999999997 Q 4.511242031542968 0.9069479999999998 4.480498031542969 0.9095099999999997 L 4.480498031542969 0.8838899999999997 Q 4.521490031542969 0.8813279999999997 4.541986031542969 0.8736419999999997 Q 4.562482031542968 0.8659559999999997 4.569527531542969 0.8428979999999997 Q 4.576573031542969 0.8198399999999997 4.576573031542969 0.7737239999999997 L 4.576573031542969 0.5111189999999997 L 4.688020031542969 0.5905409999999998 L 4.780252031542969 0.4521929999999997 M 5.586123452109375 -3.3306690738754696e-16 L 5.897406452109375 0.8019059999999997 Q 5.915340452109375 0.8480219999999997 5.937757952109375 0.8653154999999997 Q 5.960175452109375 0.8826089999999998 5.978109452109376 0.8838899999999997 L 5.978109452109376 0.9095099999999997 Q 5.939679452109376 0.9069479999999998 5.887798952109375 0.9063074999999997 Q 5.835918452109375 0.9056669999999997 5.783397452109375 0.9056669999999997 Q 5.724471452109375 0.9056669999999997 5.6719504521093755 0.9063074999999997 Q 5.619429452109375 0.9069479999999998 5.588685452109376 0.9095099999999997 L 5.588685452109376 0.8838899999999997 Q 5.654016452109375 0.8813279999999997 5.671309952109375 0.8614724999999998 Q 5.688603452109375 0.8416169999999997 5.662983452109375 0.7762859999999997 L 5.445213452109376 0.1806209999999997 L 5.468271452109375 0.14731499999999964 L 5.273559452109375 0.6545909999999997 Q 5.237691452109376 0.7493849999999997 5.238331952109375 0.7980629999999997 Q 5.238972452109375 0.8467409999999997 5.269716452109376 0.8640344999999997 Q 5.300460452109375 0.8813279999999997 5.351700452109375 0.8838899999999997 L 5.351700452109375 0.9095099999999997 Q 5.309427452109375 0.9069479999999998 5.270997452109375 0.9063074999999997 Q 5.232567452109375 0.9056669999999997 5.192856452109375 0.9056669999999997 Q 5.1646744521093755 0.9056669999999997 5.139694952109375 0.9063074999999997 Q 5.114715452109375 0.9069479999999998 5.095500452109375 0.9095099999999997 L 5.095500452109375 0.8838899999999997 Q 5.122401452109375 0.8787659999999997 5.150583452109375 0.8493029999999997 Q 5.178765452109375 0.8198399999999997 5.205666452109375 0.7493849999999997 L 5.497734452109375 -3.3306690738754696e-16 Q 5.518230452109375 0.0012809999999996435 5.541928952109375 0.0012809999999996435 Q 5.565627452109375 0.0012809999999996435 5.586123452109375 -3.3306690738754696e-16 M 5.675793452109375 0.5405819999999997 L 5.675793452109375 0.5662019999999997 L 5.294055452109375 0.5662019999999997 L 5.306865452109375 0.5405819999999997 L 5.675793452109375 0.5405819999999997" fill="#002540" fill-rule="nonzero"></path></g><g><path d=" M 0.22275 1.4689644 L 0.22275 1.4839643999999999 Q 0.19725 1.4847143999999999 0.184125 1.4895893999999998 Q 0.171 1.4944643999999998 0.1665 1.5075893999999999 Q 0.162 1.5207144 0.162 1.5484643999999999 L 0.162 1.9204644 Q 0.162 1.9474643999999999 0.1665 1.9609644 Q 0.171 1.9744643999999998 0.184125 1.9789644 Q 0.19725 1.9834644 0.22275 1.9849644 L 0.22275 1.9999643999999999 Q 0.20550000000000002 1.9984643999999998 0.179625 1.9980893999999998 Q 0.15375 1.9977143999999998 0.1275 1.9977143999999998 Q 0.09825 1.9977143999999998 0.07275 1.9980893999999998 Q 0.04725 1.9984643999999998 0.0315 1.9999643999999999 L 0.0315 1.9849644 Q 0.057 1.9834644 0.070125 1.9789644 Q 0.08325 1.9744643999999998 0.08775000000000001 1.9609644 Q 0.09225 1.9474643999999999 0.09225 1.9204644 L 0.09225 1.5484643999999999 Q 0.09225 1.5207144 0.08775000000000001 1.5075893999999999 Q 0.08325 1.4944643999999998 0.070125 1.4895893999999998 Q 0.057 1.4847143999999999 0.0315 1.4839643999999999 L 0.0315 1.4689644 Q 0.04725 1.4697144 0.07275 1.4704644 Q 0.09825 1.4712143999999998 0.1275 1.4712143999999998 Q 0.15375 1.4712143999999998 0.179625 1.4704644 Q 0.20550000000000002 1.4697144 0.22275 1.4689644 M 0.761249443359375 1.4689644 L 0.761249443359375 1.4839643999999999 Q 0.735749443359375 1.4847143999999999 0.722624443359375 1.4914644 Q 0.709499443359375 1.4982143999999997 0.704999443359375 1.5132143999999998 Q 0.700499443359375 1.5282144 0.700499443359375 1.5559644 L 0.700499443359375 2.0037144 Q 0.695999443359375 2.0037144 0.691874443359375 2.0037144 Q 0.6877494433593749 2.0037144 0.683249443359375 2.0037144 L 0.368249443359375 1.5169644 L 0.368249443359375 1.9129644 Q 0.368249443359375 1.9399643999999998 0.373124443359375 1.9553394 Q 0.377999443359375 1.9707143999999999 0.39262444335937496 1.9770893999999999 Q 0.40724944335937496 1.9834644 0.43649944335937496 1.9849644 L 0.43649944335937496 1.9999643999999999 Q 0.422999443359375 1.9984643999999998 0.401249443359375 1.9980893999999998 Q 0.379499443359375 1.9977143999999998 0.359999443359375 1.9977143999999998 Q 0.341249443359375 1.9977143999999998 0.322124443359375 1.9980893999999998 Q 0.302999443359375 1.9984643999999998 0.29024944335937497 1.9999643999999999 L 0.29024944335937497 1.9849644 Q 0.315749443359375 1.9834644 0.328874443359375 1.9770893999999999 Q 0.341999443359375 1.9707143999999999 0.346499443359375 1.9553394 Q 0.350999443359375 1.9399643999999998 0.350999443359375 1.9129644 L 0.350999443359375 1.5484643999999999 Q 0.350999443359375 1.5207144 0.346499443359375 1.5075893999999999 Q 0.341999443359375 1.4944643999999998 0.328874443359375 1.4895893999999998 Q 0.315749443359375 1.4847143999999999 0.29024944335937497 1.4839643999999999 L 0.29024944335937497 1.4689644 Q 0.302999443359375 1.4697144 0.322124443359375 1.4704644 Q 0.341249443359375 1.4712143999999998 0.359999443359375 1.4712143999999998 Q 0.376499443359375 1.4712143999999998 0.39149944335937503 1.4704644 Q 0.406499443359375 1.4697144 0.418499443359375 1.4689644 L 0.683249443359375 1.8769643999999999 L 0.683249443359375 1.5559644 Q 0.683249443359375 1.5282144 0.678374443359375 1.5132143999999998 Q 0.6734994433593751 1.4982143999999997 0.658874443359375 1.4914644 Q 0.6442494433593751 1.4847143999999999 0.6149994433593751 1.4839643999999999 L 0.6149994433593751 1.4689644 Q 0.628499443359375 1.4697144 0.6506244433593751 1.4704644 Q 0.672749443359375 1.4712143999999998 0.6914994433593751 1.4712143999999998 Q 0.7109994433593749 1.4712143999999998 0.730124443359375 1.4704644 Q 0.749249443359375 1.4697144 0.761249443359375 1.4689644 M 1.1985021826171876 1.4689644 Q 1.1955021826171874 1.4974643999999997 1.1943771826171874 1.5240893999999998 Q 1.1932521826171876 1.5507144 1.1932521826171876 1.5649643999999998 Q 1.1932521826171876 1.5829643999999998 1.1940021826171874 1.5987144 Q 1.1947521826171874 1.6144644 1.1955021826171874 1.6264644 L 1.1782521826171874 1.6264644 Q 1.1730021826171875 1.5739644 1.1640021826171876 1.5435894 Q 1.1550021826171875 1.5132143999999998 1.1325021826171875 1.4997143999999998 Q 1.1100021826171875 1.4862143999999997 1.0627521826171875 1.4862143999999997 L 1.0155021826171875 1.4862143999999997 Q 0.9900021826171875 1.4862143999999997 0.9768771826171875 1.4903393999999999 Q 0.9637521826171875 1.4944643999999998 0.9592521826171875 1.5075893999999999 Q 0.9547521826171875 1.5207144 0.9547521826171875 1.5484643999999999 L 0.9547521826171875 1.9204644 Q 0.9547521826171875 1.9474643999999999 0.9603771826171875 1.9609644 Q 0.9660021826171875 1.9744643999999998 0.9825021826171875 1.9789644 Q 0.9990021826171875 1.9834644 1.0305021826171874 1.9849644 L 1.0305021826171874 1.9999643999999999 Q 1.0110021826171876 1.9984643999999998 0.9810021826171875 1.9980893999999998 Q 0.9510021826171875 1.9977143999999998 0.9202521826171874 1.9977143999999998 Q 0.8910021826171874 1.9977143999999998 0.8655021826171875 1.9980893999999998 Q 0.8400021826171875 1.9984643999999998 0.8242521826171875 1.9999643999999999 L 0.8242521826171875 1.9849644 Q 0.8497521826171875 1.9834644 0.8628771826171875 1.9789644 Q 0.8760021826171875 1.9744643999999998 0.8805021826171875 1.9609644 Q 0.8850021826171874 1.9474643999999999 0.8850021826171874 1.9204644 L 0.8850021826171874 1.5484643999999999 Q 0.8850021826171874 1.5207144 0.8805021826171875 1.5075893999999999 Q 0.8760021826171875 1.4944643999999998 0.8628771826171875 1.4895893999999998 Q 0.8497521826171875 1.4847143999999999 0.8242521826171875 1.4839643999999999 L 0.8242521826171875 1.4689644 Q 0.8520021826171875 1.4697144 0.8827521826171875 1.4700894 Q 0.9135021826171875 1.4704644 0.9435021826171874 1.4708394 Q 0.9735021826171875 1.4712143999999998 0.9993771826171876 1.4712143999999998 Q 1.0252521826171874 1.4712143999999998 1.0417521826171874 1.4712143999999998 Q 1.0762521826171876 1.4712143999999998 1.1201271826171875 1.4708394 Q 1.1640021826171876 1.4704644 1.1985021826171876 1.4689644 M 1.0822521826171876 1.7329643999999997 Q 1.0822521826171876 1.7329643999999997 1.0822521826171876 1.7404643999999998 Q 1.0822521826171876 1.7479643999999999 1.0822521826171876 1.7479643999999999 L 0.9322521826171875 1.7479643999999999 Q 0.9322521826171875 1.7479643999999999 0.9322521826171875 1.7404643999999998 Q 0.9322521826171875 1.7329643999999997 0.9322521826171875 1.7329643999999997 L 1.0822521826171876 1.7329643999999997 M 1.0965021826171875 1.6339644 Q 1.0935021826171876 1.6767143999999998 1.0938771826171876 1.6992143999999998 Q 1.0942521826171876 1.7217143999999998 1.0942521826171876 1.7404643999999998 Q 1.0942521826171876 1.7592143999999998 1.0950021826171876 1.7817143999999998 Q 1.0957521826171874 1.8042143999999998 1.0987521826171875 1.8469643999999998 L 1.0815021826171876 1.8469643999999998 Q 1.0785021826171874 1.8229643999999998 1.0743771826171875 1.8000893999999998 Q 1.0702521826171876 1.7772143999999999 1.0563771826171875 1.7625894 Q 1.0425021826171874 1.7479643999999999 1.0095021826171875 1.7479643999999999 L 1.0095021826171875 1.7329643999999997 Q 1.0342521826171875 1.7329643999999997 1.0473771826171876 1.7228393999999998 Q 1.0605021826171874 1.7127143999999999 1.0665021826171874 1.6969644 Q 1.0725021826171874 1.6812143999999998 1.0747521826171875 1.6643393999999998 Q 1.0770021826171874 1.6474643999999998 1.0792521826171875 1.6339644 L 1.0965021826171875 1.6339644 M 1.2554869775390627 1.4689644 Q 1.2712369775390626 1.4697144 1.2967369775390627 1.4704644 Q 1.3222369775390626 1.4712143999999998 1.3469869775390626 1.4712143999999998 Q 1.3822369775390626 1.4712143999999998 1.4144869775390627 1.4704644 Q 1.4467369775390626 1.4697144 1.4602369775390627 1.4697144 Q 1.5209869775390625 1.4697144 1.5611119775390625 1.4869643999999997 Q 1.6012369775390627 1.5042144 1.6211119775390626 1.5338393999999997 Q 1.6409869775390626 1.5634644 1.6409869775390626 1.6002143999999998 Q 1.6409869775390626 1.6227143999999998 1.6319869775390625 1.6482143999999999 Q 1.6229869775390626 1.6737144 1.6008619775390627 1.6962144 Q 1.5787369775390627 1.7187143999999999 1.5404869775390626 1.7333393999999998 Q 1.5022369775390625 1.7479643999999999 1.4437369775390625 1.7479643999999999 L 1.3717369775390627 1.7479643999999999 L 1.3717369775390627 1.7329643999999997 L 1.4362369775390627 1.7329643999999997 Q 1.4894869775390627 1.7329643999999997 1.5176119775390626 1.7160894 Q 1.5457369775390626 1.6992143999999998 1.5558619775390627 1.6710893999999998 Q 1.5659869775390627 1.6429643999999999 1.5659869775390627 1.6084644 Q 1.5659869775390627 1.5492143999999999 1.5378619775390625 1.5165894 Q 1.5097369775390626 1.4839643999999999 1.4414869775390626 1.4839643999999999 Q 1.4069869775390627 1.4839643999999999 1.3964869775390627 1.4967144 Q 1.3859869775390625 1.5094644 1.3859869775390625 1.5484643999999999 L 1.3859869775390625 1.9204644 Q 1.3859869775390625 1.9474643999999999 1.3904869775390627 1.9609644 Q 1.3949869775390626 1.9744643999999998 1.4081119775390627 1.9789644 Q 1.4212369775390625 1.9834644 1.4467369775390626 1.9849644 L 1.4467369775390626 1.9999643999999999 Q 1.4294869775390626 1.9984643999999998 1.4036119775390625 1.9980893999999998 Q 1.3777369775390627 1.9977143999999998 1.3514869775390626 1.9977143999999998 Q 1.3222369775390626 1.9977143999999998 1.2967369775390627 1.9980893999999998 Q 1.2712369775390626 1.9984643999999998 1.2554869775390627 1.9999643999999999 L 1.2554869775390627 1.9849644 Q 1.2809869775390625 1.9834644 1.2941119775390626 1.9789644 Q 1.3072369775390627 1.9744643999999998 1.3117369775390626 1.9609644 Q 1.3162369775390625 1.9474643999999999 1.3162369775390625 1.9204644 L 1.3162369775390625 1.5484643999999999 Q 1.3162369775390625 1.5207144 1.3117369775390626 1.5075893999999999 Q 1.3072369775390627 1.4944643999999998 1.2941119775390626 1.4895893999999998 Q 1.2809869775390625 1.4847143999999999 1.2554869775390627 1.4839643999999999 L 1.2554869775390627 1.4689644 M 1.3747369775390625 1.7352143999999998 Q 1.4152369775390625 1.7367143999999999 1.4384869775390625 1.7385894 Q 1.4617369775390627 1.7404643999999998 1.4763619775390626 1.7419643999999999 Q 1.4909869775390625 1.7434644 1.5044869775390626 1.7457143999999998 Q 1.5547369775390627 1.7539643999999999 1.5768619775390627 1.7760893999999998 Q 1.5989869775390626 1.7982143999999998 1.6094869775390626 1.8447144 L 1.6282369775390626 1.9212143999999998 Q 1.6357369775390627 1.9542144 1.6436119775390625 1.9688393999999998 Q 1.6514869775390626 1.9834644 1.6679869775390626 1.9827143999999999 Q 1.6807369775390626 1.9819643999999998 1.6893619775390625 1.9744643999999998 Q 1.6979869775390626 1.9669644 1.7077369775390627 1.9542144 L 1.7189869775390627 1.9624643999999998 Q 1.7032369775390626 1.9857143999999998 1.6863619775390626 1.9980893999999998 Q 1.6694869775390626 2.0104644 1.6387369775390626 2.0104644 Q 1.6109869775390626 2.0104644 1.5899869775390627 1.9939643999999999 Q 1.5689869775390626 1.9774644 1.5584869775390626 1.9294643999999999 L 1.5419869775390627 1.8544644 Q 1.5352369775390626 1.8222143999999998 1.5266119775390625 1.7985893999999998 Q 1.5179869775390626 1.7749643999999998 1.5026119775390625 1.7614644 Q 1.4872369775390626 1.7479643999999999 1.4572369775390626 1.7479643999999999 L 1.3762369775390626 1.7479643999999999 L 1.3747369775390625 1.7352143999999998 M 1.95675216796875 1.4652143999999998 L 2.13975216796875 1.9369644 Q 2.15100216796875 1.9654644 2.1652521679687498 1.9748393999999998 Q 2.17950216796875 1.9842144 2.19150216796875 1.9849644 L 2.19150216796875 1.9999643999999999 Q 2.17650216796875 1.9984643999999998 2.1547521679687502 1.9980893999999998 Q 2.13300216796875 1.9977143999999998 2.11125216796875 1.9977143999999998 Q 2.08200216796875 1.9977143999999998 2.05650216796875 1.9980893999999998 Q 2.03100216796875 1.9984643999999998 2.01525216796875 1.9999643999999999 L 2.01525216796875 1.9849644 Q 2.05350216796875 1.9834644 2.06400216796875 1.9718394 Q 2.07450216796875 1.9602144 2.05950216796875 1.9219643999999998 L 1.92000216796875 1.5492143999999999 L 1.93200216796875 1.5394644 L 1.80150216796875 1.8784644 Q 1.78950216796875 1.9084644 1.78725216796875 1.9290893999999998 Q 1.78500216796875 1.9497144 1.79137716796875 1.9617144 Q 1.79775216796875 1.9737143999999998 1.81312716796875 1.9789644 Q 1.82850216796875 1.9842144 1.85175216796875 1.9849644 L 1.85175216796875 1.9999643999999999 Q 1.83075216796875 1.9984643999999998 1.80787716796875 1.9980893999999998 Q 1.78500216796875 1.9977143999999998 1.76550216796875 1.9977143999999998 Q 1.7467521679687499 1.9977143999999998 1.73362716796875 1.9980893999999998 Q 1.72050216796875 1.9984643999999998 1.70925216796875 1.9999643999999999 L 1.70925216796875 1.9849644 Q 1.72425216796875 1.9812143999999998 1.74000216796875 1.9673394 Q 1.75575216796875 1.9534643999999999 1.76850216796875 1.9197144 L 1.94475216796875 1.4652143999999998 Q 1.94775216796875 1.4652143999999998 1.95075216796875 1.4652143999999998 Q 1.95375216796875 1.4652143999999998 1.95675216796875 1.4652143999999998 M 2.0482521679687498 1.7839644 L 2.0482521679687498 1.7989643999999998 L 1.82475216796875 1.7989643999999998 L 1.83225216796875 1.7839644 L 2.0482521679687498 1.7839644 M 2.4142884082031246 1.4689644 Q 2.4300384082031248 1.4697144 2.455538408203125 1.4704644 Q 2.481038408203125 1.4712143999999998 2.5057884082031245 1.4712143999999998 Q 2.541038408203125 1.4712143999999998 2.573288408203125 1.4704644 Q 2.6055384082031248 1.4697144 2.619038408203125 1.4697144 Q 2.7097884082031247 1.4697144 2.7547884082031246 1.5109643999999998 Q 2.7997884082031246 1.5522143999999998 2.7997884082031246 1.6174643999999998 Q 2.7997884082031246 1.6444644 2.7907884082031247 1.6740893999999997 Q 2.781788408203125 1.7037144 2.759663408203125 1.7288393999999998 Q 2.737538408203125 1.7539643999999999 2.6992884082031248 1.7697143999999998 Q 2.6610384082031246 1.7854644 2.6025384082031247 1.7854644 L 2.5305384082031246 1.7854644 L 2.5305384082031246 1.7704643999999998 L 2.595038408203125 1.7704643999999998 Q 2.6482884082031246 1.7704643999999998 2.676413408203125 1.7502144 Q 2.704538408203125 1.7299643999999998 2.714663408203125 1.6969644 Q 2.724788408203125 1.6639643999999998 2.724788408203125 1.6257144 Q 2.724788408203125 1.5544643999999999 2.6966634082031247 1.5192143999999999 Q 2.668538408203125 1.4839643999999999 2.6002884082031246 1.4839643999999999 Q 2.5657884082031246 1.4839643999999999 2.5552884082031246 1.4967144 Q 2.5447884082031247 1.5094644 2.5447884082031247 1.5484643999999999 L 2.5447884082031247 1.9204644 Q 2.5447884082031247 1.9474643999999999 2.550413408203125 1.9609644 Q 2.5560384082031247 1.9744643999999998 2.572538408203125 1.9789644 Q 2.5890384082031246 1.9834644 2.620538408203125 1.9849644 L 2.620538408203125 1.9999643999999999 Q 2.6010384082031246 1.9984643999999998 2.571038408203125 1.9980893999999998 Q 2.541038408203125 1.9977143999999998 2.5102884082031247 1.9977143999999998 Q 2.481038408203125 1.9977143999999998 2.455538408203125 1.9980893999999998 Q 2.4300384082031248 1.9984643999999998 2.4142884082031246 1.9999643999999999 L 2.4142884082031246 1.9849644 Q 2.4397884082031247 1.9834644 2.4529134082031248 1.9789644 Q 2.466038408203125 1.9744643999999998 2.470538408203125 1.9609644 Q 2.4750384082031247 1.9474643999999999 2.4750384082031247 1.9204644 L 2.4750384082031247 1.5484643999999999 Q 2.4750384082031247 1.5207144 2.470538408203125 1.5075893999999999 Q 2.466038408203125 1.4944643999999998 2.4529134082031248 1.4895893999999998 Q 2.4397884082031247 1.4847143999999999 2.4142884082031246 1.4839643999999999 L 2.4142884082031246 1.4689644 M 2.857562387695312 1.4689644 Q 2.873312387695312 1.4697144 2.8988123876953122 1.4704644 Q 2.9243123876953123 1.4712143999999998 2.949062387695312 1.4712143999999998 Q 2.9843123876953124 1.4712143999999998 3.0165623876953123 1.4704644 Q 3.048812387695312 1.4697144 3.062312387695312 1.4697144 Q 3.1230623876953123 1.4697144 3.163187387695312 1.4869643999999997 Q 3.2033123876953122 1.5042144 3.223187387695312 1.5338393999999997 Q 3.243062387695312 1.5634644 3.243062387695312 1.6002143999999998 Q 3.243062387695312 1.6227143999999998 3.234062387695312 1.6482143999999999 Q 3.225062387695312 1.6737144 3.202937387695312 1.6962144 Q 3.1808123876953123 1.7187143999999999 3.142562387695312 1.7333393999999998 Q 3.104312387695312 1.7479643999999999 3.045812387695312 1.7479643999999999 L 2.973812387695312 1.7479643999999999 L 2.973812387695312 1.7329643999999997 L 3.038312387695312 1.7329643999999997 Q 3.091562387695312 1.7329643999999997 3.119687387695312 1.7160894 Q 3.1478123876953124 1.6992143999999998 3.1579373876953123 1.6710893999999998 Q 3.1680623876953122 1.6429643999999999 3.1680623876953122 1.6084644 Q 3.1680623876953122 1.5492143999999999 3.139937387695312 1.5165894 Q 3.1118123876953123 1.4839643999999999 3.043562387695312 1.4839643999999999 Q 3.009062387695312 1.4839643999999999 2.998562387695312 1.4967144 Q 2.988062387695312 1.5094644 2.988062387695312 1.5484643999999999 L 2.988062387695312 1.9204644 Q 2.988062387695312 1.9474643999999999 2.9925623876953122 1.9609644 Q 2.997062387695312 1.9744643999999998 3.010187387695312 1.9789644 Q 3.023312387695312 1.9834644 3.048812387695312 1.9849644 L 3.048812387695312 1.9999643999999999 Q 3.0315623876953124 1.9984643999999998 3.0056873876953123 1.9980893999999998 Q 2.979812387695312 1.9977143999999998 2.953562387695312 1.9977143999999998 Q 2.9243123876953123 1.9977143999999998 2.8988123876953122 1.9980893999999998 Q 2.873312387695312 1.9984643999999998 2.857562387695312 1.9999643999999999 L 2.857562387695312 1.9849644 Q 2.883062387695312 1.9834644 2.896187387695312 1.9789644 Q 2.909312387695312 1.9744643999999998 2.9138123876953124 1.9609644 Q 2.918312387695312 1.9474643999999999 2.918312387695312 1.9204644 L 2.918312387695312 1.5484643999999999 Q 2.918312387695312 1.5207144 2.9138123876953124 1.5075893999999999 Q 2.909312387695312 1.4944643999999998 2.896187387695312 1.4895893999999998 Q 2.883062387695312 1.4847143999999999 2.857562387695312 1.4839643999999999 L 2.857562387695312 1.4689644 M 2.976812387695312 1.7352143999999998 Q 3.0173123876953123 1.7367143999999999 3.0405623876953123 1.7385894 Q 3.0638123876953123 1.7404643999999998 3.0784373876953124 1.7419643999999999 Q 3.093062387695312 1.7434644 3.106562387695312 1.7457143999999998 Q 3.1568123876953122 1.7539643999999999 3.178937387695312 1.7760893999999998 Q 3.201062387695312 1.7982143999999998 3.211562387695312 1.8447144 L 3.230312387695312 1.9212143999999998 Q 3.237812387695312 1.9542144 3.245687387695312 1.9688393999999998 Q 3.253562387695312 1.9834644 3.270062387695312 1.9827143999999999 Q 3.282812387695312 1.9819643999999998 3.291437387695312 1.9744643999999998 Q 3.3000623876953123 1.9669644 3.3098123876953123 1.9542144 L 3.3210623876953123 1.9624643999999998 Q 3.305312387695312 1.9857143999999998 3.2884373876953124 1.9980893999999998 Q 3.271562387695312 2.0104644 3.2408123876953123 2.0104644 Q 3.213062387695312 2.0104644 3.1920623876953123 1.9939643999999999 Q 3.1710623876953123 1.9774644 3.160562387695312 1.9294643999999999 L 3.144062387695312 1.8544644 Q 3.137312387695312 1.8222143999999998 3.128687387695312 1.7985893999999998 Q 3.120062387695312 1.7749643999999998 3.104687387695312 1.7614644 Q 3.089312387695312 1.7479643999999999 3.059312387695312 1.7479643999999999 L 2.978312387695312 1.7479643999999999 L 2.976812387695312 1.7352143999999998 M 3.5948275781249994 1.4584644 Q 3.6660775781249995 1.4584644 3.7197025781249997 1.4907143999999999 Q 3.7733275781249995 1.5229643999999998 3.8029525781249998 1.5833393999999998 Q 3.8325775781249996 1.6437144 3.8325775781249996 1.7299643999999998 Q 3.8325775781249996 1.8139644 3.8022025781249997 1.8769643999999999 Q 3.7718275781249995 1.9399643999999998 3.7178275781249996 1.9752143999999998 Q 3.6638275781249994 2.0104644 3.5940775781249994 2.0104644 Q 3.5228275781249994 2.0104644 3.4692025781249995 1.9782144 Q 3.4155775781249997 1.9459643999999998 3.3859525781249995 1.8852144 Q 3.3563275781249997 1.8244643999999999 3.3563275781249997 1.7389644 Q 3.3563275781249997 1.6549644 3.3870775781249995 1.5919643999999997 Q 3.4178275781249994 1.5289643999999998 3.4714525781249996 1.4937144 Q 3.5250775781249994 1.4584644 3.5948275781249994 1.4584644 M 3.5918275781249998 1.4719643999999998 Q 3.5430775781249997 1.4719643999999998 3.5070775781249997 1.5057143999999998 Q 3.4710775781249996 1.5394644 3.4512025781249998 1.5987144 Q 3.4313275781249994 1.6579643999999998 3.4313275781249994 1.7359643999999999 Q 3.4313275781249994 1.8154643999999998 3.4534525781249994 1.8743393999999998 Q 3.4755775781249993 1.9332143999999998 3.5134525781249994 1.9650893999999999 Q 3.5513275781249996 1.9969644 3.5970775781249995 1.9969644 Q 3.6458275781249996 1.9969644 3.6818275781249996 1.9632143999999998 Q 3.7178275781249996 1.9294643999999999 3.7377025781249995 1.8698393999999998 Q 3.7575775781249994 1.8102143999999998 3.7575775781249994 1.7329643999999997 Q 3.7575775781249994 1.6527143999999998 3.7354525781249994 1.5942143999999998 Q 3.7133275781249995 1.5357143999999998 3.6758275781249994 1.5038394 Q 3.6383275781249997 1.4719643999999998 3.5918275781249998 1.4719643999999998 M 3.8565916699218743 2.1409643999999997 L 3.8565916699218743 2.1267144 Q 3.8903416699218742 2.1259644 3.9132166699218742 2.1102144 Q 3.9360916699218746 2.0944643999999997 3.947716669921874 2.0580894 Q 3.9593416699218746 2.0217144 3.9593416699218746 1.9609644 L 3.9593416699218746 1.5484643999999999 Q 3.9593416699218746 1.5207144 3.9548416699218745 1.5075893999999999 Q 3.9503416699218743 1.4944643999999998 3.9372166699218742 1.4895893999999998 Q 3.9240916699218746 1.4847143999999999 3.8985916699218746 1.4839643999999999 L 3.8985916699218746 1.4689644 Q 3.9143416699218743 1.4697144 3.9398416699218743 1.4704644 Q 3.9653416699218744 1.4712143999999998 3.9930916699218746 1.4712143999999998 Q 4.020841669921874 1.4712143999999998 4.046716669921874 1.4704644 Q 4.0725916699218745 1.4697144 4.089841669921874 1.4689644 L 4.089841669921874 1.4839643999999999 Q 4.064341669921874 1.4847143999999999 4.051216669921875 1.4895893999999998 Q 4.038091669921874 1.4944643999999998 4.033591669921875 1.5075893999999999 Q 4.029091669921875 1.5207144 4.029091669921875 1.5484643999999999 L 4.029091669921875 1.8229643999999998 Q 4.029091669921875 1.8537143999999999 4.028341669921875 1.8897144 Q 4.027591669921875 1.9257144 4.0249666699218745 1.9594643999999999 Q 4.022341669921874 1.9932143999999998 4.016341669921874 2.0187144 Q 4.0035916699218745 2.0712143999999997 3.9627166699218743 2.1060893999999997 Q 3.9218416699218746 2.1409643999999997 3.8565916699218743 2.1409643999999997 M 4.5263407470703125 1.4689644 Q 4.523340747070312 1.4952143999999998 4.522215747070312 1.5199643999999999 Q 4.521090747070312 1.5447144 4.521090747070312 1.5574643999999997 Q 4.521090747070312 1.5709643999999998 4.521840747070312 1.5833393999999998 Q 4.522590747070312 1.5957143999999999 4.523340747070312 1.6039643999999997 L 4.506090747070313 1.6039643999999997 Q 4.5015907470703125 1.5597143999999998 4.493340747070312 1.5338393999999997 Q 4.485090747070312 1.5079643999999999 4.465215747070312 1.4970894 Q 4.445340747070312 1.4862143999999997 4.405590747070312 1.4862143999999997 L 4.343340747070313 1.4862143999999997 Q 4.317840747070313 1.4862143999999997 4.304715747070312 1.4903393999999999 Q 4.2915907470703125 1.4944643999999998 4.287090747070312 1.5075893999999999 Q 4.282590747070312 1.5207144 4.282590747070312 1.5484643999999999 L 4.282590747070312 1.9204644 Q 4.282590747070312 1.9474643999999999 4.287090747070312 1.9609644 Q 4.2915907470703125 1.9744643999999998 4.304715747070312 1.9785894 Q 4.317840747070313 1.9827143999999999 4.343340747070313 1.9827143999999999 L 4.398090747070312 1.9827143999999999 Q 4.445340747070312 1.9827143999999999 4.469715747070312 1.9699643999999998 Q 4.494090747070312 1.9572143999999998 4.504965747070313 1.9283393999999998 Q 4.515840747070312 1.8994643999999998 4.521090747070312 1.8499644 L 4.538340747070312 1.8499644 Q 4.536090747070312 1.8702143999999998 4.536090747070312 1.9039643999999998 Q 4.536090747070312 1.9182143999999999 4.537215747070312 1.9448393999999998 Q 4.538340747070312 1.9714644 4.541340747070312 1.9999643999999999 Q 4.5030907470703125 1.9984643999999998 4.4550907470703125 1.9980893999999998 Q 4.4070907470703125 1.9977143999999998 4.369590747070312 1.9977143999999998 Q 4.353090747070312 1.9977143999999998 4.327215747070312 1.9977143999999998 Q 4.301340747070312 1.9977143999999998 4.271340747070313 1.9980893999999998 Q 4.241340747070312 1.9984643999999998 4.210590747070312 1.9988393999999998 Q 4.179840747070312 1.9992143999999998 4.152090747070313 1.9999643999999999 L 4.152090747070313 1.9849644 Q 4.177590747070313 1.9834644 4.190715747070312 1.9789644 Q 4.203840747070312 1.9744643999999998 4.208340747070312 1.9609644 Q 4.212840747070312 1.9474643999999999 4.212840747070312 1.9204644 L 4.212840747070312 1.5484643999999999 Q 4.212840747070312 1.5207144 4.208340747070312 1.5075893999999999 Q 4.203840747070312 1.4944643999999998 4.190715747070312 1.4895893999999998 Q 4.177590747070313 1.4847143999999999 4.152090747070313 1.4839643999999999 L 4.152090747070313 1.4689644 Q 4.179840747070312 1.4697144 4.210590747070312 1.4700894 Q 4.241340747070312 1.4704644 4.271340747070313 1.4708394 Q 4.301340747070312 1.4712143999999998 4.327215747070312 1.4712143999999998 Q 4.353090747070312 1.4712143999999998 4.369590747070312 1.4712143999999998 Q 4.404090747070312 1.4712143999999998 4.447965747070312 1.4708394 Q 4.491840747070312 1.4704644 4.5263407470703125 1.4689644 M 4.397340747070312 1.7254644 Q 4.397340747070312 1.7254644 4.397340747070312 1.7329643999999997 Q 4.397340747070312 1.7404643999999998 4.397340747070312 1.7404643999999998 L 4.260090747070312 1.7404643999999998 Q 4.260090747070312 1.7404643999999998 4.260090747070312 1.7329643999999997 Q 4.260090747070312 1.7254644 4.260090747070312 1.7254644 L 4.397340747070312 1.7254644 M 4.419090747070312 1.6264644 Q 4.416090747070312 1.6692144 4.416465747070312 1.6917144 Q 4.416840747070312 1.7142144 4.416840747070312 1.7329643999999997 Q 4.416840747070312 1.7517143999999998 4.417590747070312 1.7742144 Q 4.418340747070312 1.7967144 4.421340747070312 1.8394643999999998 L 4.404090747070312 1.8394643999999998 Q 4.401090747070312 1.8154643999999998 4.396965747070312 1.7925893999999998 Q 4.392840747070312 1.7697143999999998 4.378965747070312 1.7550894 Q 4.365090747070313 1.7404643999999998 4.332090747070312 1.7404643999999998 L 4.332090747070312 1.7254644 Q 4.356840747070312 1.7254644 4.369965747070312 1.7153394 Q 4.383090747070312 1.7052143999999998 4.389090747070313 1.6894643999999999 Q 4.395090747070312 1.6737144 4.397340747070312 1.6568394 Q 4.399590747070312 1.6399643999999998 4.401840747070312 1.6264644 L 4.419090747070312 1.6264644 M 4.860104838867187 1.4584644 Q 4.909604838867187 1.4584644 4.9414798388671874 1.4730893999999999 Q 4.973354838867187 1.4877143999999998 4.998104838867187 1.5072143999999998 Q 5.0131048388671875 1.5184643999999998 5.020979838867187 1.5098393999999997 Q 5.028854838867187 1.5012143999999998 5.031854838867187 1.4689644 L 5.049104838867187 1.4689644 Q 5.047604838867187 1.4967144 5.046854838867187 1.5364643999999998 Q 5.046104838867187 1.5762143999999998 5.046104838867187 1.6414643999999998 L 5.028854838867187 1.6414643999999998 Q 5.023604838867187 1.6092144 5.019104838867187 1.5900893999999999 Q 5.0146048388671876 1.5709643999999998 5.008229838867187 1.5574643999999997 Q 5.001854838867187 1.5439644 4.991354838867188 1.5304643999999998 Q 4.968104838867188 1.4997143999999998 4.932854838867187 1.4858393999999997 Q 4.897604838867188 1.4719643999999998 4.858604838867187 1.4719643999999998 Q 4.821854838867187 1.4719643999999998 4.792229838867187 1.4903393999999999 Q 4.762604838867187 1.5087144 4.741229838867187 1.5432143999999999 Q 4.719854838867187 1.5777143999999999 4.7082298388671875 1.6264644 Q 4.696604838867187 1.6752143999999998 4.696604838867187 1.7359643999999999 Q 4.696604838867187 1.7989643999999998 4.7093548388671875 1.8473393999999999 Q 4.722104838867187 1.8957144 4.744979838867187 1.9287143999999998 Q 4.767854838867187 1.9617144 4.798979838867187 1.9785894 Q 4.830104838867187 1.9954644 4.866104838867187 1.9954644 Q 4.899854838867187 1.9954644 4.936604838867187 1.9819643999999998 Q 4.973354838867187 1.9684643999999998 4.994354838867187 1.9384644 Q 5.010854838867187 1.9167143999999998 5.017229838867187 1.8912144 Q 5.023604838867187 1.8657143999999999 5.028854838867187 1.8199644 L 5.046104838867187 1.8199644 Q 5.046104838867187 1.8882143999999998 5.046854838867187 1.9298393999999999 Q 5.047604838867187 1.9714644 5.049104838867187 1.9999643999999999 L 5.031854838867187 1.9999643999999999 Q 5.028854838867187 1.9677143999999998 5.021729838867187 1.9594643999999999 Q 5.0146048388671876 1.9512143999999998 4.998104838867187 1.9617144 Q 4.970354838867187 1.9812143999999998 4.939229838867187 1.9958394 Q 4.908104838867187 2.0104644 4.859354838867187 2.0104644 Q 4.788104838867187 2.0104644 4.734479838867188 1.9782144 Q 4.680854838867187 1.9459643999999998 4.651229838867187 1.8852144 Q 4.621604838867187 1.8244643999999999 4.621604838867187 1.7389644 Q 4.621604838867187 1.6549644 4.652354838867187 1.5919643999999997 Q 4.683104838867187 1.5289643999999998 4.736729838867187 1.4937144 Q 4.790354838867187 1.4584644 4.860104838867187 1.4584644 M 5.546353549804687 1.4689644 Q 5.543353549804687 1.4974643999999997 5.542228549804687 1.5240893999999998 Q 5.541103549804687 1.5507144 5.541103549804687 1.5649643999999998 Q 5.541103549804687 1.5829643999999998 5.541853549804687 1.5987144 Q 5.542603549804687 1.6144644 5.543353549804687 1.6264644 L 5.526103549804687 1.6264644 Q 5.520853549804687 1.5739644 5.5118535498046874 1.5435894 Q 5.502853549804687 1.5132143999999998 5.480353549804687 1.4997143999999998 Q 5.457853549804687 1.4862143999999997 5.410603549804687 1.4862143999999997 L 5.370103549804687 1.4862143999999997 L 5.370103549804687 1.9129644 Q 5.370103549804687 1.9429644 5.375728549804687 1.9579643999999998 Q 5.381353549804687 1.9729644 5.397853549804687 1.9782144 Q 5.414353549804687 1.9834644 5.445853549804687 1.9849644 L 5.445853549804687 1.9999643999999999 Q 5.426353549804687 1.9984643999999998 5.396353549804687 1.9980893999999998 Q 5.366353549804687 1.9977143999999998 5.335603549804687 1.9977143999999998 Q 5.301853549804687 1.9977143999999998 5.272228549804687 1.9980893999999998 Q 5.242603549804687 1.9984643999999998 5.224603549804687 1.9999643999999999 L 5.224603549804687 1.9849644 Q 5.256103549804687 1.9834644 5.272603549804687 1.9782144 Q 5.289103549804687 1.9729644 5.294728549804687 1.9579643999999998 Q 5.300353549804687 1.9429644 5.300353549804687 1.9129644 L 5.300353549804687 1.4862143999999997 L 5.259853549804687 1.4862143999999997 Q 5.213353549804687 1.4862143999999997 5.190478549804687 1.4997143999999998 Q 5.167603549804687 1.5132143999999998 5.158603549804687 1.5435894 Q 5.149603549804687 1.5739644 5.144353549804687 1.6264644 L 5.127103549804687 1.6264644 Q 5.128603549804687 1.6144644 5.128978549804687 1.5987144 Q 5.129353549804687 1.5829643999999998 5.129353549804687 1.5649643999999998 Q 5.129353549804687 1.5507144 5.128228549804687 1.5240893999999998 Q 5.127103549804687 1.4974643999999997 5.124103549804687 1.4689644 Q 5.155603549804687 1.4697144 5.192728549804687 1.4704644 Q 5.229853549804687 1.4712143999999998 5.267353549804687 1.4712143999999998 Q 5.304853549804687 1.4712143999999998 5.335603549804687 1.4712143999999998 Q 5.366353549804687 1.4712143999999998 5.403478549804687 1.4712143999999998 Q 5.440603549804687 1.4712143999999998 5.478103549804687 1.4704644 Q 5.515603549804687 1.4697144 5.546353549804687 1.4689644 M 5.764589809570312 1.4607143999999999 Q 5.802089809570312 1.4607143999999999 5.821589809570312 1.4693394 Q 5.841089809570312 1.4779643999999998 5.856089809570312 1.4884643999999998 Q 5.865089809570312 1.4937144 5.870714809570312 1.4963393999999999 Q 5.876339809570312 1.4989643999999998 5.881589809570312 1.4989643999999998 Q 5.8890898095703115 1.4989643999999998 5.892464809570312 1.4907143999999999 Q 5.895839809570312 1.4824644 5.898089809570312 1.4659643999999998 L 5.915339809570312 1.4659643999999998 Q 5.9145898095703116 1.4787143999999999 5.9134648095703115 1.4963393999999999 Q 5.912339809570312 1.5139643999999999 5.911964809570312 1.5428393999999999 Q 5.911589809570312 1.5717143999999998 5.911589809570312 1.6189643999999999 L 5.894339809570312 1.6189643999999999 Q 5.892089809570312 1.5829643999999998 5.878589809570312 1.5499644 Q 5.865089809570312 1.5169644 5.839214809570312 1.4959643999999999 Q 5.813339809570312 1.4749643999999997 5.771339809570312 1.4749643999999997 Q 5.731589809570312 1.4749643999999997 5.705714809570312 1.4989643999999998 Q 5.6798398095703115 1.5229643999999998 5.6798398095703115 1.5619644 Q 5.6798398095703115 1.5957143999999999 5.697089809570312 1.6185893999999998 Q 5.714339809570312 1.6414643999999998 5.743214809570312 1.6598393999999999 Q 5.772089809570312 1.6782143999999999 5.805839809570312 1.6992143999999998 Q 5.844839809570312 1.7232143999999998 5.875214809570312 1.7468393999999998 Q 5.905589809570312 1.7704643999999998 5.923214809570312 1.7989643999999998 Q 5.940839809570312 1.8274643999999998 5.940839809570312 1.8679644 Q 5.940839809570312 1.9159643999999998 5.919089809570312 1.9474643999999999 Q 5.897339809570312 1.9789644 5.861339809570312 1.9947143999999999 Q 5.825339809570312 2.0104644 5.781839809570312 2.0104644 Q 5.742089809570312 2.0104644 5.718839809570312 2.0014643999999997 Q 5.695589809570312 1.9924643999999998 5.6790898095703115 1.9827143999999999 Q 5.662589809570312 1.9722144 5.653589809570312 1.9722144 Q 5.646089809570312 1.9722144 5.642714809570312 1.9804643999999998 Q 5.639339809570312 1.9887143999999999 5.637089809570312 2.0052144 L 5.619839809570312 2.0052144 Q 5.621339809570312 1.9894644 5.621714809570312 1.9680893999999998 Q 5.622089809570312 1.9467143999999998 5.622464809570312 1.9122143999999999 Q 5.622839809570312 1.8777144 5.622839809570312 1.8252144 L 5.640089809570312 1.8252144 Q 5.643089809570312 1.8702143999999998 5.656964809570312 1.9092143999999998 Q 5.670839809570312 1.9482144 5.699714809570312 1.9718394 Q 5.728589809570312 1.9954644 5.776589809570312 1.9954644 Q 5.801339809570312 1.9954644 5.823464809570312 1.9853393999999998 Q 5.845589809570312 1.9752143999999998 5.859839809570312 1.9530893999999999 Q 5.874089809570312 1.9309644 5.874089809570312 1.8957144 Q 5.874089809570312 1.8649643999999999 5.859464809570312 1.8420893999999999 Q 5.844839809570312 1.8192144 5.818589809570312 1.7993393999999998 Q 5.792339809570312 1.7794644 5.757089809570312 1.7584643999999998 Q 5.721839809570312 1.7367143999999999 5.691089809570312 1.7142144 Q 5.660339809570312 1.6917144 5.641964809570312 1.6620894 Q 5.623589809570312 1.6324644 5.623589809570312 1.5904644 Q 5.623589809570312 1.5462143999999998 5.643464809570312 1.5173393999999998 Q 5.663339809570312 1.4884643999999998 5.695589809570312 1.4745893999999997 Q 5.727839809570312 1.4607143999999999 5.764589809570312 1.4607143999999999" fill="#012844" fill-rule="nonzero"></path></g><g clip-path="url(#SvgjsClipPath1002)"><g clip-path="url(#SvgjsClipPath10000df4c123-2ad3-408d-b68b-1bf76f1ee88d)"><path d=" M -2.293041662347585 1.282469218267953 C -2.19491459284398 1.2884163133893836 -2.096787523340375 1.2884163133893836 -2.000147227617128 1.289903087169741 C -1.9912265849349824 1.289903087169741 -1.9778456209117634 1.2869295396090257 -1.9733852995706904 1.2973369560715295 C -1.9689249782296177 1.307744372534033 -1.9808191684724787 1.3136914676554632 -1.988253037374267 1.3211253365572517 C -2.132470094068959 1.4638556194715857 -2.276687150763651 1.6050991286055623 -2.4223909812387 1.7478294115198962 C -2.4283380763601308 1.753776506641327 -2.435771945261919 1.7656706968841882 -2.4461793617244227 1.7597236017627575 C -2.4551000044065683 1.753776506641327 -2.4506396830654955 1.741882316398466 -2.4491529092851376 1.73296167371632 C -2.4342851714815614 1.5976652597037742 -2.419417433677985 1.4638556194715857 -2.4045496958744086 1.3285592054590394 C -2.4000893745333354 1.2854427658286678 -2.398602600752978 1.2839559920483103 -2.3539993873422485 1.2839559920483103 C -2.333184554417241 1.282469218267953 -2.3123697214922343 1.282469218267953 -2.293041662347585 1.282469218267953 Z" fill="#f79e00" transform="matrix(1,0,0,1,0,0)" fill-rule="nonzero"></path></g><g clip-path="url(#SvgjsClipPath10000df4c123-2ad3-408d-b68b-1bf76f1ee88d)"><path d=" M -1.5838505691169866 1.5144059280037458 C -1.5987183069205633 1.573876879218052 -1.612099270943782 1.6318610566520002 -1.6254802349670008 1.6898452340859484 C -1.6581892581348692 1.8266284218788522 -1.6908982813027376 1.9634116096717555 -1.7250940782509632 2.0987080236843014 C -1.7280676258116787 2.1076286663664474 -1.7265808520313208 2.1239831779503815 -1.7384750422741821 2.1239831779503815 C -1.7488824587366858 2.1239831779503815 -1.7503692325170432 2.1106022139271627 -1.7533427800777588 2.1016815712450168 C -1.806866636170634 1.9693587047931858 -1.8603904922635093 1.838522612121713 -1.9154011221367424 1.7061997456698825 C -1.9258085385992458 1.6824113651841603 -1.9213482172581728 1.6660568536002263 -1.8975598367724504 1.654162663357365 C -1.8009195410492034 1.6036123548252048 -1.7042792453259563 1.5530620462930447 -1.6061521758223516 1.5025117377608845 C -1.5957447593598477 1.4965646426394543 -1.5808770215562715 1.4876439999573083 -1.5838505691169866 1.5144059280037458 Z" fill="#f79e00" transform="matrix(1,0,0,1,0,0)" fill-rule="nonzero"></path></g><g clip-path="url(#SvgjsClipPath10000df4c123-2ad3-408d-b68b-1bf76f1ee88d)"><path d=" M -2.886264400710286 1.129331518891115 C -2.890724722051359 1.130818292671473 -2.8966718171727894 1.130818292671473 -2.8996453647335048 1.1263579713303997 C -2.90261891229422 1.1189241024286116 -2.8966718171727894 1.112977007307181 -2.8936982696120745 1.1085166859661082 C -2.8669363415656366 1.0758076627982396 -2.840174413519199 1.041611865850014 -2.8134124854727616 1.0089028426821458 C -2.759888629379886 0.9434847963464091 -2.704877999506653 0.8795535237910302 -2.6513541434137777 0.8141354774552938 C -2.637973179390559 0.7977809658713599 -2.6260789891476977 0.7933206445302867 -2.6067509300030482 0.8022412872124327 C -2.495242896476225 0.851304821964235 -2.3837348629494013 0.901855130496395 -2.2737136032029355 0.9509186652481975 C -2.266279734301147 0.9538922128089128 -2.2558723178386435 0.9553789865892705 -2.2558723178386435 0.9672731768321315 C -2.2573590916190014 0.9747070457339196 -2.266279734301147 0.9761938195142773 -2.2722268294225776 0.977680593294635 C -2.4729412897708603 1.0282309018267952 -2.6751425238995004 1.0772944365785975 -2.87734375802814 1.1263579713303997 C -2.8803173055888553 1.1278447451107572 -2.8832908531495707 1.1278447451107572 -2.886264400710286 1.129331518891115 Z" fill="#f79e00" transform="matrix(1,0,0,1,0,0)" fill-rule="nonzero"></path></g><g clip-path="url(#SvgjsClipPath10000df4c123-2ad3-408d-b68b-1bf76f1ee88d)"><path d=" M -1.0961887691596781 2.092760928562871 C -1.0961887691596781 2.097221249903944 -1.0947019953793207 2.103168345025374 -1.0991623167203932 2.10614189258609 C -1.1036226380614658 2.1091154401468053 -1.1080829594025392 2.10614189258609 -1.1125432807436122 2.1031683450253746 C -1.1170036020846852 2.1001947974646598 -1.1214639234257582 2.095734476123586 -1.1259242447668312 2.0912741547825133 C -1.2091835764668595 2.008014823082485 -1.2924429081668876 1.9232687176020988 -1.3771890136472738 1.840009385902071 C -1.3905699776704925 1.8266284218788522 -1.3980038465722808 1.813247457855633 -1.3861096563294195 1.7939193987109836 C -1.337046121577617 1.70768651945024 -1.2894693606061725 1.6214536401894968 -1.2404058258543698 1.5352207609287531 C -1.2374322782936547 1.529273665807322 -1.234458730732939 1.518866249344819 -1.2255380880507936 1.518866249344819 C -1.2151306715882897 1.518866249344819 -1.2151306715882897 1.5292736658073225 -1.213643897807932 1.5367075347091106 C -1.1749877795186334 1.7180939359127438 -1.1363316612293344 1.8979935633360192 -1.0976755429400356 2.0793799645396525 C -1.0961887691596781 2.0853270596610827 -1.0961887691596781 2.089787381002156 -1.0961887691596781 2.092760928562871 Z" fill="#f79e00" transform="matrix(1,0,0,1,0,0)" fill-rule="nonzero"></path></g><g clip-path="url(#SvgjsClipPath10000df4c123-2ad3-408d-b68b-1bf76f1ee88d)"><path d=" M -2.388195184290474 0.619368112228442 C -2.465507420869072 0.6059871482052233 -2.5472799787887426 0.5926061841820044 -2.6275657629280555 0.5792252201587854 C -2.7301531537727333 0.5628707085748514 -2.832740544617411 0.5465161969909172 -2.933841161681731 0.5286749116266255 C -2.942761804363877 0.5271881378462677 -2.959116315947811 0.5301616854069832 -2.959116315947811 0.5152939476034066 C -2.959116315947811 0.5048865311409031 -2.9442485781442342 0.5033997573605455 -2.936814709242446 0.5004262097998302 C -2.8342273183977684 0.4617700915105314 -2.7316399275530907 0.42311397322123245 -2.629052536708413 0.38445785493193374 C -2.608237703783406 0.3770239860301454 -2.591883192199472 0.37999753359086086 -2.5770154543958954 0.3948652713944374 C -2.5086238604994433 0.4617700915105315 -2.4402322666029916 0.5301616854069833 -2.37184067270654 0.5970665055230774 C -2.367380351365467 0.6015268268641504 -2.359946482463679 0.6059871482052234 -2.364406803804752 0.6134210171070116 C -2.3688671251458246 0.6223416597891573 -2.3763009940476127 0.619368112228442 -2.388195184290474 0.619368112228442 Z" fill="#f79e00" transform="matrix(1,0,0,1,0,0)" fill-rule="nonzero"></path></g><g clip-path="url(#SvgjsClipPath10000df4c123-2ad3-408d-b68b-1bf76f1ee88d)"><path d=" M -0.9683262240489205 1.395464025575134 C -0.9489981649042716 1.4088449895983528 -0.9430510697828409 1.4296598225233597 -0.9311568795399796 1.4489878816680095 C -0.8583049643024547 1.5679297840966209 -0.7869398228452882 1.6853849127448752 -0.7155746813881203 1.804326815173487 C -0.7111143600470475 1.8117606840752756 -0.7007069435845441 1.8221681005377786 -0.7066540387059752 1.829601969439567 C -0.7140879076077633 1.8400093859020705 -0.7259820978506242 1.8310887432199245 -0.7349027405327702 1.8266284218788522 C -0.807754655770295 1.795406172491341 -0.8806065710078199 1.7641839231038308 -0.9534584862453443 1.73296167371632 C -0.972786545389994 1.724041031034174 -0.9802204142917823 1.7121468407913127 -0.9817071880721395 1.6913320078663059 C -0.9817071880721395 1.5976652597037737 -0.9787336405114244 1.5054852853215994 -0.9757600929507093 1.4118185371590677 C -0.9757600929507093 1.4058714420376375 -0.9772468667310665 1.3999243469162073 -0.9683262240489205 1.395464025575134 Z" fill="#f79e00" transform="matrix(1,0,0,1,0,0)" fill-rule="nonzero"></path></g><g clip-path="url(#SvgjsClipPath10000df4c123-2ad3-408d-b68b-1bf76f1ee88d)"><path d=" M -2.6691954287780697 0.1064311580050536 C -2.587422870858399 0.11386502690684186 -2.5041635391583705 0.11089147934612656 -2.4223909812387 0.11237825312648414 C -2.4030629220940507 0.11237825312648414 -2.389681958070832 0.11832534824791474 -2.380761315388686 0.13765340739256415 C -2.355486161122606 0.1956375848265124 -2.3287242330761684 0.25213498848010296 -2.3049358525904458 0.3101191659140512 C -2.3019623050297304 0.3190398085961972 -2.293041662347585 0.3294472250587006 -2.3034490788100883 0.3368810939604889 C -2.3108829477118764 0.3428281890819194 -2.3198035903940224 0.33539432018013116 -2.3272374592958105 0.332420772619416 C -2.4580735519672836 0.2655159525033218 -2.5889096446387567 0.19712435860687 -2.7197457373102294 0.1302195384907759 C -2.72569283243166 0.12724599093006062 -2.736100248894164 0.12427244336934531 -2.7331267013334486 0.11535180068719944 C -2.7301531537727333 0.10643115800505348 -2.7197457373102294 0.10940470556576881 -2.7123118684084413 0.10940470556576881 C -2.6989309043852225 0.10494438422469601 -2.684063166581646 0.1064311580050536 -2.6691954287780697 0.1064311580050536 Z" fill="#f79e00" transform="matrix(1,0,0,1,0,0)" fill-rule="nonzero"></path></g><g clip-path="url(#SvgjsClipPath10000df4c123-2ad3-408d-b68b-1bf76f1ee88d)"><path d=" M -0.8434372264988781 1.1873156963250633 C -0.8211356197935138 1.2081305292500706 -0.7973472393077916 1.22745858839472 -0.7750456326024264 1.2482734213197269 C -0.7066540387059752 1.3122046938751057 -0.6382624448095231 1.3761359664304842 -0.569870850913071 1.441554012766221 C -0.5639237557916403 1.4475011078876516 -0.5505427917684211 1.4534482030090823 -0.5564898868898522 1.4638556194715857 C -0.5609502082309255 1.4727762621537317 -0.5728443984737863 1.4698027145930164 -0.5802782673755744 1.4698027145930164 C -0.6293418021273771 1.4712894883733738 -0.6784053368791789 1.4727762621537317 -0.7289556454113391 1.4742630359340891 C -0.7453101569952731 1.4742630359340891 -0.7572043472381349 1.4712894883733738 -0.7631514423595656 1.4549349767894397 C -0.7914001441863605 1.3716756450894119 -0.8196488460131559 1.2884163133893831 -0.8478975478399513 1.2051569816893553 C -0.8493843216203087 1.200696660348282 -0.8493843216203087 1.1962363390072093 -0.8493843216203087 1.191776017666136 C -0.8478975478399517 1.1888024701054212 -0.8464107740595939 1.1888024701054212 -0.8434372264988781 1.1873156963250633 Z" fill="#f79e00" transform="matrix(1,0,0,1,0,0)" fill-rule="nonzero"></path></g><g clip-path="url(#SvgjsClipPath10000df4c123-2ad3-408d-b68b-1bf76f1ee88d)"><path d=" M -2.1101684873635937 0.04993375435146302 C -2.1116552611439516 0.08561632508004657 -2.114628808704667 0.11981212202827243 -2.116115582485025 0.15400791897649835 C -2.116115582485025 0.1599550140979289 -2.116115582485025 0.16887565678007488 -2.123549451386813 0.17036243056043254 C -2.1294965465082436 0.17184920434079015 -2.1339568678493164 0.16738888299971727 -2.1384171891903896 0.16292856165864428 C -2.2187029733297026 0.08710309886040427 -2.300475531249373 0.009790862281806562 -2.380761315388686 -0.06603460051643345 C -2.385221636729759 -0.0704949218575064 -2.39116873185119 -0.07346846941822169 -2.388195184290474 -0.08090233832000994 C -2.385221636729759 -0.08982298100215581 -2.376300994047613 -0.08536265966108289 -2.3703538989261825 -0.08387588588072523 C -2.2900681147868696 -0.05860073161464523 -2.2097823306475566 -0.034812351128922864 -2.1294965465082436 -0.008050423082485186 C -2.0997610709010903 0.0023569933800182963 -2.114628808704667 0.03209246898717122 -2.1101684873635937 0.04993375435146302 Z" fill="#f79e00" transform="matrix(1,0,0,1,0,0)" fill-rule="nonzero"></path></g><g clip-path="url(#SvgjsClipPath10000df4c123-2ad3-408d-b68b-1bf76f1ee88d)"><path d=" M -0.8300562624756598 0.9524054390285549 C -0.8241091673542291 0.9553789865892705 -0.8196488460131564 0.9568657603696279 -0.8166752984524406 0.9598393079303434 C -0.7423366094345583 0.9999821999999997 -0.6679979204166759 1.0386383182892986 -0.5936592313987936 1.078781210358955 C -0.5639237557916408 1.095135721942889 -0.5639237557916408 1.102569590844677 -0.5906856838380783 1.120410876208969 C -0.6159608381041584 1.1367653877929031 -0.6427227661505963 1.1516331255964798 -0.6679979204166759 1.1679876371804139 C -0.6828656582202526 1.1783950536429173 -0.693273074682756 1.1769082798625599 -0.7036804911452599 1.1605537682786258 C -0.745310156995274 1.0981092695036048 -0.7884265966256456 1.0356647707285833 -0.8315430362560177 0.9732202719535622 C -0.8345165838167325 0.9672731768321315 -0.8419504527185206 0.9598393079303434 -0.8300562624756598 0.9524054390285549 Z" fill="#f79e00" transform="matrix(1,0,0,1,0,0)" fill-rule="nonzero"></path></g><g clip-path="url(#SvgjsClipPath10000df4c123-2ad3-408d-b68b-1bf76f1ee88d)"><path d=" M -2.016501739201062 -0.12401877795038174 C -2.0105546440796314 -0.12104523038966646 -2.004607548958201 -0.11955845660930879 -2.000147227617128 -0.1165849090485935 C -1.9466233715242527 -0.08536265966108292 -1.8930995154313774 -0.05265363649321468 -1.8395756593385022 -0.022918160886061703 C -1.8187608264134951 -0.011023970643200529 -1.8113269575117068 0.0023569933800182963 -1.827681469095641 0.023171826305025373 C -1.845522754459933 0.04696020679074775 -1.861877266043867 0.0707485872764701 -1.8782317776278012 0.09453696776219248 C -1.8886391940903047 0.11089147934612661 -1.8990466105528083 0.11089147934612661 -1.9094540270153115 0.09453696776219248 C -1.9481101453046104 0.027632147646098365 -1.9852794898135515 -0.039272672469995815 -2.0224488343224927 -0.10617749258608994 C -2.025422381883208 -0.1121245877075206 -2.0313694770046387 -0.12104523038966646 -2.016501739201062 -0.12401877795038174 Z" fill="#f79e00" transform="matrix(1,0,0,1,0,0)" fill-rule="nonzero"></path></g><g clip-path="url(#SvgjsClipPath10000df4c123-2ad3-408d-b68b-1bf76f1ee88d)"><path d=" M -0.8850668923488927 0.7264158244141925 C -0.8285694886953019 0.7383100146570536 -0.7676117637006383 0.7502042048999148 -0.7081408124863322 0.7620983951427761 C -0.6888127533416828 0.7665587164838491 -0.6813788844398947 0.775479359165995 -0.6917863009023981 0.7948074183106445 C -0.7036804911452599 0.8185957987963668 -0.7140879076077633 0.8438709530624469 -0.7259820978506242 0.8691461073285269 C -0.7334159667524127 0.8840138451321035 -0.7423366094345583 0.8869873926928186 -0.7557175734577775 0.8750932024499575 C -0.8032943344292218 0.8304899890392281 -0.8523578691810245 0.7858867756284987 -0.8999346301524689 0.7412835622177693 C -0.9029081777131842 0.7383100146570538 -0.9073684990542574 0.733849693315981 -0.9058817252739 0.729389371974908 C -0.9014214039328263 0.7219555030731197 -0.8939875350310382 0.724929050633835 -0.8850668923488927 0.7264158244141925 Z" fill="#f79e00" transform="matrix(1,0,0,1,0,0)" fill-rule="nonzero"></path></g><g clip-path="url(#SvgjsClipPath10000df4c123-2ad3-408d-b68b-1bf76f1ee88d)"><path d=" M -1.6775173172795186 -0.061574279175360555 C -1.6730569959384456 -0.05860073161464527 -1.6685966745973728 -0.05562718405392997 -1.6641363532562996 -0.05265363649321468 C -1.6239934611866431 -0.015484291984273507 -1.5838505691169864 0.02168505252466768 -1.5422209032669725 0.060341170813966505 C -1.527353165463396 0.07372213483718532 -1.531813486804469 0.08412955129968888 -1.5481679983884031 0.09156342020147712 C -1.5749299264348406 0.1034576104443383 -1.6031786282616363 0.1153518006871995 -1.6299405563080738 0.12724599093006067 C -1.6462950678920076 0.13467985983184882 -1.6567024843545115 0.130219538490776 -1.6596760319152266 0.11237825312648414 C -1.6685966745973726 0.060341170813966505 -1.6760305434991607 0.009790862281806506 -1.6849511861813067 -0.04224622003071117 C -1.6864379599616646 -0.05116686271285702 -1.687924733742022 -0.06008750539500292 -1.6775173172795186 -0.061574279175360555 Z" fill="#f79e00" transform="matrix(1,0,0,1,0,0)" fill-rule="nonzero"></path></g><g clip-path="url(#SvgjsClipPath10000df4c123-2ad3-408d-b68b-1bf76f1ee88d)"><path d=" M -0.8642520594238854 0.5613839347944938 C -0.8642520594238854 0.5703045774766398 -0.8642520594238854 0.5807119939391432 -0.8642520594238854 0.589632636621289 C -0.8642520594238854 0.6000400530837926 -0.8568181905220973 0.6119342433266538 -0.870199154545316 0.619368112228442 C -0.879119797227462 0.6238284335695149 -0.888040439909608 0.6163945646677267 -0.896961082591754 0.610447469546296 C -0.9385907484417682 0.5866590890605737 -0.9802204142917823 0.5628707085748513 -1.0218500801417965 0.5375955543087714 C -1.0277971752632271 0.534622006748056 -1.0367178179453729 0.5301616854069832 -1.0352310441650152 0.5212410427248372 C -1.0322574966043 0.5123204000426913 -1.0233368539221541 0.5123204000426913 -1.0159029850203656 0.5108336262623336 C -0.977246866731067 0.5033997573605454 -0.940077522222126 0.4974526622391149 -0.9014214039328268 0.49001879333732656 C -0.8761462496667471 0.4855584719962537 -0.8627652856435284 0.49447911467839956 -0.8642520594238858 0.5227278165051948 C -0.8642520594238854 0.5361087805284137 -0.8642520594238854 0.5480029707712749 -0.8642520594238854 0.5613839347944938 L -0.8642520594238854 0.5613839347944938 Z" fill="#f79e00" transform="matrix(1,0,0,1,0,0)" fill-rule="nonzero"></path></g><g clip-path="url(#SvgjsClipPath10000df4c123-2ad3-408d-b68b-1bf76f1ee88d)"><path d=" M -1.3474535380401207 0.21793919153187719 C -1.3652948234044124 0.21793919153187719 -1.3816493349883467 0.21793919153187719 -1.3994906203526383 0.21793919153187719 C -1.4173319057169302 0.21793919153187719 -1.426252548399076 0.21050532263008892 -1.4203054532776453 0.19266403726579723 C -1.4084112630347843 0.15846824031757134 -1.3980038465722808 0.1227856695889877 -1.3846228825490619 0.08858987264076185 C -1.3771890136472738 0.0692618134961124 -1.36678159718477 0.0707485872764701 -1.354887406941909 0.08561632508004657 C -1.329612252675829 0.12129889580863012 -1.3043370984097489 0.15698146653721362 -1.2805487179240267 0.19266403726579723 C -1.2701413014615233 0.20753177506937376 -1.2746016228025958 0.21645241775151947 -1.292442908166888 0.21645241775151947 C -1.3117709673115372 0.21793919153187719 -1.3296122526758292 0.21793919153187719 -1.3474535380401207 0.21793919153187719 L -1.3474535380401207 0.21793919153187719 Z" fill="#f79e00" transform="matrix(1,0,0,1,0,0)" fill-rule="nonzero"></path></g><g clip-path="url(#SvgjsClipPath10000df4c123-2ad3-408d-b68b-1bf76f1ee88d)"><path d=" M -1.0486120081882335 0.3814843073712184 C -1.0486120081882335 0.3978388189551525 -1.0560458770900218 0.3978388189551525 -1.066453293552525 0.39635204517479483 C -1.109569733182897 0.38445785493193374 -1.1541729465936263 0.37107689090871476 -1.1972893862239984 0.3591827006658536 C -1.212157124027575 0.3547223793247808 -1.216617445368648 0.34431496286227725 -1.203236481345429 0.3339075463997736 C -1.1749877795186339 0.3101191659140512 -1.1467390776918382 0.28781755920868657 -1.1170036020846852 0.2655159525033218 C -1.109569733182897 0.2595688573818912 -1.0991623167203937 0.2580820836015335 -1.0947019953793207 0.2670027262836795 C -1.0738871624543136 0.3026852970122631 -1.0634797459918104 0.34431496286227725 -1.0486120081882335 0.3814843073712184 Z" fill="#f79e00" transform="matrix(1,0,0,1,0,0)" fill-rule="nonzero"></path></g></g></g><defs><clipPath id="SvgjsClipPath1002"><path d=" M -2.959116315947811 -0.12401877795038174 h 2.4041163159478107 v 2.2480019559007633 h -2.4041163159478107 Z"></path></clipPath><clipPath id="SvgjsClipPath10000df4c123-2ad3-408d-b68b-1bf76f1ee88d"><path d=" M -2.959116315947811 -0.12401877795038174 L -0.5550000000000002 -0.12401877795038174 L -0.5550000000000002 2.1239831779503815 L -2.959116315947811 2.1239831779503815 Z"></path></clipPath></defs></svg>